<svg xmlns="http://www.w3.org/2000/svg" xmlns:xlink="http://www.w3.org/1999/xlink" width="1536" height="600" viewBox="0 0 1536 600">
  <defs>
    <clipPath id="clip-path">
      <rect id="Rectangle_8438" data-name="Rectangle 8438" width="2249.913" height="1078.306" transform="translate(0.151 -0.094)"/>
    </clipPath>
    <clipPath id="clip-how-to-file-an-auto-claim_hero-block-image">
      <rect width="1536" height="600"/>
    </clipPath>
  </defs>
  <g id="how-to-file-an-auto-claim_hero-block-image" clip-path="url(#clip-how-to-file-an-auto-claim_hero-block-image)">
    <rect width="1536" height="600" fill="#fff"/>
    <g id="Desktop_MMA" data-name="Desktop MMA" transform="translate(-711.063 -300.193)" clip-path="url(#clip-path)">
      <rect id="Rectangle_8437" data-name="Rectangle 8437" width="2249.913" height="1078.306" transform="translate(0.151 -0.094)" fill="#fff"/>
      <g id="Group_141" data-name="Group 141" transform="translate(-0.05 0.031)">
        <g id="Group_39" data-name="Group 39" transform="translate(0.831)">
          <rect id="Rectangle_98" data-name="Rectangle 98" width="2248.788" height="1078.18" fill="#f46c0f"/>
        </g>
        <g id="Group_48" data-name="Group 48" transform="translate(0 1034.2)">
          <rect id="Rectangle_104" data-name="Rectangle 104" width="2250.115" height="43.98" fill="#ff8f2f"/>
        </g>
        <g id="Group_52" data-name="Group 52" transform="translate(1620.908 435.335)">
          <path id="Path_1060" data-name="Path 1060" d="M1065.767,278.6l-27.622,71.386a12.13,12.13,0,0,0,8.352,16.14l39.014,9.816,6.236-48.671Z" transform="translate(-1037.328 -278.6)" fill="#ff8f2f"/>
        </g>
        <g id="Group_53" data-name="Group 53" transform="translate(1597.764 382.676)">
          <path id="Path_1061" data-name="Path 1061" d="M1067.454,376.216c-7.443,0-15.413-5.3-22.8-15.28-8.125-10.969-14.729-26.448-18.61-43.587s-4.588-33.955-1.986-47.346c2.728-14.052,8.838-22.836,17.2-24.729,16.82-3.806,36.5,21.876,44.793,58.491,3.881,17.138,4.586,33.955,1.986,47.346-2.728,14.052-8.838,22.836-17.2,24.729a15.325,15.325,0,0,1-3.385.377m-22.787-126.639a10.748,10.748,0,0,0-2.367.261c-6.349,1.439-11.319,9.113-13.638,21.053-2.48,12.773-1.784,28.908,1.956,45.423s10.065,31.375,17.805,41.833c7.238,9.777,15.027,14.559,21.378,13.126s11.321-9.111,13.64-21.051c2.48-12.774,1.786-28.908-1.956-45.423-7.032-31.055-23.409-55.217-36.817-55.217" transform="translate(-1022.517 -244.9)" fill="#fff"/>
        </g>
        <g id="Group_54" data-name="Group 54" transform="translate(2008.757 318.766)">
          <path id="Path_1062" data-name="Path 1062" d="M1305.279,204l45.866,138.218a72.882,72.882,0,0,1,2.822,34.291l-12.141,77.082-56.287,8.225Z" transform="translate(-1285.539 -204)" fill="#ffa452"/>
        </g>
        <g id="Group_55" data-name="Group 55" transform="translate(1925.439 515.706)">
          <rect id="Rectangle_107" data-name="Rectangle 107" width="85.564" height="76.21" fill="#ffa452"/>
        </g>
        <g id="Group_56" data-name="Group 56" transform="translate(1925.439 273.908)">
          <path id="Path_1063" data-name="Path 1063" d="M1339.606,422.973H1232.218V175.292h94.289a13.1,13.1,0,0,1,13.1,13.1Z" transform="translate(-1232.218 -175.292)" fill="#d7f2f8"/>
        </g>
        <g id="Group_57" data-name="Group 57" transform="translate(2022.255 310.484)">
          <path id="Path_1064" data-name="Path 1064" d="M1297.3,220.841h0a3.125,3.125,0,0,1-3.125-3.125v-16.1a3.125,3.125,0,0,1,6.236,0v16.107a3.125,3.125,0,0,1-3.117,3.125" transform="translate(-1294.177 -198.699)" fill="#fff"/>
        </g>
        <g id="Group_58" data-name="Group 58" transform="translate(1925.439 292.996)">
          <path id="Path_1065" data-name="Path 1065" d="M1323.785,397.016h-91.567V187.508h83.911a7.657,7.657,0,0,1,7.656,7.657Z" transform="translate(-1232.218 -187.508)" fill="#004085"/>
        </g>
        <g id="Group_59" data-name="Group 59" transform="translate(1984.431 375.062)">
          <path id="Path_1066" data-name="Path 1066" d="M1278.529,443.717l-4.817-16.592a94.36,94.36,0,0,1,7.572-71.105l10.063-18.653,2.745-85.773a11.954,11.954,0,0,1,23.692-1.841l22.753,120.176-6.235,66.114Z" transform="translate(-1269.971 -240.027)" fill="#ffa452"/>
        </g>
        <g id="Group_60" data-name="Group 60" transform="translate(2019.722 374.279)">
          <path id="Path_1067" data-name="Path 1067" d="M1324.814,355.043a.781.781,0,0,1-.767-.638l-19.732-104.224a11.184,11.184,0,0,0-10.977-9.093.781.781,0,1,1,0-1.563,12.749,12.749,0,0,1,12.513,10.365l19.732,104.224a.782.782,0,0,1-.625.913.766.766,0,0,1-.144.016Z" transform="translate(-1292.556 -239.526)" fill="#f46c0f"/>
        </g>
        <g id="Group_61" data-name="Group 61" transform="translate(1983.66 516.16)">
          <path id="Path_1068" data-name="Path 1068" d="M1278.808,393.7a.781.781,0,0,1-.751-.564l-4.818-16.59a95.52,95.52,0,0,1-1.842-45.593.782.782,0,1,1,1.533.312,93.91,93.91,0,0,0,1.811,44.846l4.818,16.59a.781.781,0,0,1-.533.969.756.756,0,0,1-.217.03Z" transform="translate(-1269.478 -330.325)" fill="#f46c0f"/>
        </g>
        <g id="Group_62" data-name="Group 62" transform="translate(1185.786 658.471)">
          <path id="Path_1069" data-name="Path 1069" d="M758.864,523.31,795.153,421.4l57.994,93.13-35.1,81.754Z" transform="translate(-758.864 -421.4)" fill="#ff8f2f"/>
        </g>
        <g id="Group_63" data-name="Group 63" transform="translate(1178.221 679.419)">
          <path id="Path_1070" data-name="Path 1070" d="M849.634,697.044,764.474,576.9a56.746,56.746,0,0,1-1.8-62.924l49.559-79.168,25.462,38.419-37.419,53,71.188,85.218Z" transform="translate(-754.023 -434.806)" fill="#ffa452"/>
        </g>
        <g id="Group_64" data-name="Group 64" transform="translate(1161.916 405.682)">
          <rect id="Rectangle_108" data-name="Rectangle 108" width="332.239" height="166.119" transform="translate(0 166.119) rotate(-30)" fill="#fff"/>
        </g>
        <g id="Group_65" data-name="Group 65" transform="translate(1210.987 547.723)">
          <path id="Path_1071" data-name="Path 1071" d="M821.94,510.985l-46.948-81.317,137.076-79.143,46.949,81.318-1.352.781L911.5,352.658,777.126,430.238,823.288,510.2Z" transform="translate(-774.992 -350.525)" fill="#3b8dfe"/>
        </g>
        <g id="Group_66" data-name="Group 66" transform="translate(1221.7 565.501)">
          <rect id="Rectangle_109" data-name="Rectangle 109" width="156.72" height="1.561" transform="matrix(0.866, -0.5, 0.5, 0.866, 0, 78.36)" fill="#3b8dfe"/>
        </g>
        <g id="Group_67" data-name="Group 67" transform="translate(1252.442 595.148)">
          <rect id="Rectangle_110" data-name="Rectangle 110" width="119.511" height="1.561" transform="matrix(0.866, -0.5, 0.5, 0.866, 0, 59.755)" fill="#3b8dfe"/>
        </g>
        <g id="Group_68" data-name="Group 68" transform="translate(1263.521 641.533)">
          <rect id="Rectangle_111" data-name="Rectangle 111" width="65.125" height="1.561" transform="matrix(0.866, -0.5, 0.5, 0.866, 0, 32.563)" fill="#3b8dfe"/>
        </g>
        <g id="Group_69" data-name="Group 69" transform="translate(1184.456 552.445)">
          <path id="Path_1072" data-name="Path 1072" d="M774.556,410.677l-16.543-28.653,49.326-28.477L823.882,382.2ZM760.146,382.6l14.98,25.948,46.623-26.915-14.98-25.948Z" transform="translate(-758.013 -353.547)" fill="#9ac8ff"/>
        </g>
        <g id="Group_70" data-name="Group 70" transform="translate(1278.786 430.852)">
          <path id="Path_1073" data-name="Path 1073" d="M834.924,400l-16.543-28.655,165.605-95.611,16.543,28.655Zm-14.41-28.081,14.98,25.948,162.9-94.055L983.419,277.87Z" transform="translate(-818.381 -275.731)" fill="#9ac8ff"/>
        </g>
        <g id="Group_71" data-name="Group 71" transform="translate(1375.287 476.795)">
          <path id="Path_1074" data-name="Path 1074" d="M927.087,441.662l-46.948-81.317,95.63-55.212,46.948,81.317-1.352.781L975.2,307.269l-92.93,53.648,46.166,79.963Z" transform="translate(-880.139 -305.133)" fill="#9ac8ff"/>
        </g>
        <g id="Group_72" data-name="Group 72" transform="translate(1386.566 494.563)">
          <rect id="Rectangle_112" data-name="Rectangle 112" width="108.202" height="1.563" transform="matrix(0.866, -0.5, 0.5, 0.866, 0, 54.101)" fill="#9ac8ff"/>
        </g>
        <g id="Group_73" data-name="Group 73" transform="translate(1244.973 549.544)">
          <path id="Path_1075" data-name="Path 1075" d="M1116.849,481.565,829.123,647.685,796.742,517.808,1084.469,351.69Z" transform="translate(-796.742 -351.69)" fill="#d7f2f8"/>
        </g>
        <g id="Group_74" data-name="Group 74" transform="translate(0.831)">
          <rect id="Rectangle_113" data-name="Rectangle 113" width="2248.788" height="1078.18" fill="none"/>
        </g>
        <g id="Group_75" data-name="Group 75" transform="translate(1257.059 704.434)">
          <rect id="Rectangle_114" data-name="Rectangle 114" width="1.563" height="141.146" transform="translate(0 0.378) rotate(-14.001)" fill="#0064dc"/>
        </g>
        <g id="Group_76" data-name="Group 76" transform="translate(1393.577 629.242)">
          <rect id="Rectangle_115" data-name="Rectangle 115" width="1.563" height="138.229" transform="translate(0 0.378) rotate(-13.999)" fill="#0064dc"/>
        </g>
        <g id="Group_77" data-name="Group 77" transform="translate(1422.152 612.744)">
          <rect id="Rectangle_116" data-name="Rectangle 116" width="1.563" height="139.607" transform="translate(0 0.378) rotate(-13.999)" fill="#6bacfb"/>
        </g>
        <g id="Group_78" data-name="Group 78" transform="translate(1516.427 558.313)">
          <rect id="Rectangle_117" data-name="Rectangle 117" width="1.563" height="137.104" transform="translate(0 0.378) rotate(-13.999)" fill="#6bacfb"/>
        </g>
        <g id="Group_79" data-name="Group 79" transform="translate(1287.142 674.387)">
          <rect id="Rectangle_118" data-name="Rectangle 118" width="104.963" height="1.561" transform="matrix(0.866, -0.5, 0.5, 0.866, 0, 52.482)" fill="#0064dc"/>
        </g>
        <g id="Group_80" data-name="Group 80" transform="translate(1292.896 697.468)">
          <rect id="Rectangle_119" data-name="Rectangle 119" width="104.963" height="1.561" transform="matrix(0.866, -0.5, 0.5, 0.866, 0, 52.482)" fill="#0064dc"/>
        </g>
        <g id="Group_81" data-name="Group 81" transform="translate(1297.344 745.091)">
          <path id="Path_1076" data-name="Path 1076" d="M838.935,536.692l-8.677-34.8,43.407-25.062,8.677,34.792Zm-6.875-34.033,7.889,31.642,40.594-23.439-7.89-31.642Z" transform="translate(-830.258 -476.834)" fill="#0064dc"/>
        </g>
        <g id="Group_82" data-name="Group 82" transform="translate(1244.973 549.547)">
          <path id="Path_1077" data-name="Path 1077" d="M796.742,517.807l32.381,129.874,287.726-166.116-32.381-129.872Z" transform="translate(-796.742 -351.692)" fill="none"/>
        </g>
        <g id="Group_83" data-name="Group 83" transform="translate(1277.351 679.419)">
          <path id="Path_1078" data-name="Path 1078" d="M1210.666,544.021,922.937,710.145,817.463,600.921l287.729-166.115Z" transform="translate(-817.463 -434.806)" fill="#fff"/>
        </g>
        <g id="Group_84" data-name="Group 84" transform="translate(0.831)">
          <rect id="Rectangle_120" data-name="Rectangle 120" width="2248.788" height="1078.18" fill="none"/>
        </g>
        <g id="Group_85" data-name="Group 85" transform="translate(1287.022 758.746)">
          <path id="Path_1079" data-name="Path 1079" d="M915.191,656.3l-.423-.438-91.116-94.35,1.124-1.094,90.691,93.911,134.329-77.559-87.011-90.1,1.123-1.094,88.4,91.542-.867.5Z" transform="translate(-823.652 -485.573)" fill="#3b8dfe"/>
        </g>
        <g id="Group_86" data-name="Group 86" transform="translate(1393.577 842.402)">
          <rect id="Rectangle_121" data-name="Rectangle 121" width="98.035" height="1.561" transform="matrix(0.866, -0.5, 0.5, 0.866, 0, 49.017)" fill="#3b8dfe"/>
        </g>
        <g id="Group_87" data-name="Group 87" transform="translate(1454.729 687.818)">
          <path id="Path_1080" data-name="Path 1080" d="M958.349,524.054l-27.37-28.341,1.123-1.094,26.52,27.47,92.881-53.626-26.251-27.189,1.124-1.094,27.642,28.625-.867.5Z" transform="translate(-930.979 -440.181)" fill="#9ac8ff"/>
        </g>
        <g id="Group_88" data-name="Group 88" transform="translate(1521.728 759.717)">
          <path id="Path_1081" data-name="Path 1081" d="M979.622,531.259l-5.766-24.573,32.624-18.835a14.045,14.045,0,0,1,10.9-.987l25.695,7.763Zm-3.979-23.8,5.022,21.4,58.5-33.777-22.24-6.719a12.491,12.491,0,0,0-9.665.844Z" transform="translate(-973.856 -486.194)" fill="#3b8dfe"/>
        </g>
        <g id="Group_89" data-name="Group 89" transform="translate(1541.758 768.679)">
          <rect id="Rectangle_122" data-name="Rectangle 122" width="1.563" height="23.295" transform="translate(0 1.085) rotate(-44.002)" fill="#3b8dfe"/>
        </g>
        <g id="Group_90" data-name="Group 90" transform="translate(1516.848 758.943)">
          <path id="Path_1082" data-name="Path 1082" d="M986.828,552.549l-16.095-16.67,84.692-48.9a11.635,11.635,0,0,1,13.458,2.041l10.013,10.369-10.394,6-.423-.439a12.685,12.685,0,0,0-14.666-2.249,6.84,6.84,0,0,0-3.575,4.933,7.321,7.321,0,0,0,2.264,6.1l.7.719-36.488,21.07-.425-.438a12.681,12.681,0,0,0-14.665-2.25,6.848,6.848,0,0,0-3.577,4.936,7.326,7.326,0,0,0,2.264,6.1l.7.72Zm-13.585-16.315L987.1,550.588l11.019-6.363a8.594,8.594,0,0,1-2.031-6.661,8.371,8.371,0,0,1,4.344-6.072,14.339,14.339,0,0,1,16.132,2.084l33.752-19.49a8.594,8.594,0,0,1-2.031-6.663,8.361,8.361,0,0,1,4.341-6.069,14.351,14.351,0,0,1,16.132,2.085l7.619-4.4-8.622-8.929a10,10,0,0,0-11.554-1.775Z" transform="translate(-970.733 -485.699)" fill="#3b8dfe"/>
        </g>
        <g id="Group_91" data-name="Group 91" transform="translate(1542.148 803.157)">
          <path id="Path_1083" data-name="Path 1083" d="M999.893,533.166a14.4,14.4,0,0,1-10.223-4.119,8.848,8.848,0,0,1-2.691-7.4,8.371,8.371,0,0,1,4.344-6.072,14.324,14.324,0,0,1,16.563,2.516,8.852,8.852,0,0,1,2.689,7.405,8.368,8.368,0,0,1-4.342,6.069A12.7,12.7,0,0,1,999.893,533.166Zm-2.188-17.657a11.211,11.211,0,0,0-5.6,1.406,6.847,6.847,0,0,0-3.577,4.936,7.32,7.32,0,0,0,2.266,6.094,12.676,12.676,0,0,0,14.665,2.25,6.851,6.851,0,0,0,3.577-4.935,7.325,7.325,0,0,0-2.266-6.094h0a12.77,12.77,0,0,0-9.071-3.653Z" transform="translate(-986.924 -513.995)" fill="#3b8dfe"/>
        </g>
        <g id="Group_92" data-name="Group 92" transform="translate(1594.35 773.019)">
          <path id="Path_1084" data-name="Path 1084" d="M1033.3,513.88a14.4,14.4,0,0,1-10.221-4.119,8.845,8.845,0,0,1-2.688-7.4,8.364,8.364,0,0,1,4.341-6.072,14.327,14.327,0,0,1,16.564,2.516,8.849,8.849,0,0,1,2.689,7.405,8.369,8.369,0,0,1-4.341,6.069,12.7,12.7,0,0,1-6.344,1.6Zm-2.188-17.657a11.208,11.208,0,0,0-5.6,1.406,6.849,6.849,0,0,0-3.575,4.936,7.328,7.328,0,0,0,2.264,6.094,12.682,12.682,0,0,0,14.666,2.249,6.846,6.846,0,0,0,3.575-4.933,7.327,7.327,0,0,0-2.264-6.1,12.788,12.788,0,0,0-9.074-3.644Z" transform="translate(-1020.332 -494.707)" fill="#3b8dfe"/>
        </g>
        <g id="Group_93" data-name="Group 93" transform="translate(1277.354 679.41)">
          <path id="Path_1085" data-name="Path 1085" d="M817.465,600.93,922.939,710.155l287.726-166.13L1105.191,434.8Z" transform="translate(-817.465 -434.8)" fill="none"/>
        </g>
        <g id="Group_101" data-name="Group 101" transform="translate(0 693.074)">
          <path id="Path_1092" data-name="Path 1092" d="M139.668,465.351a33.866,33.866,0,0,0-31.645-21.806H0V563.4H177.04Z" transform="translate(0 -443.545)" fill="#f46c0f"/>
        </g>
        <g id="Group_110" data-name="Group 110" transform="translate(644.595 1000.812)">
          <path id="Path_1100" data-name="Path 1100" d="M438.981,658.047,412.52,641.818l.817-1.331L438.8,656.1l14.7-13.319h24.256v1.563H454.1Z" transform="translate(-412.52 -640.487)" fill="#f65992"/>
        </g>
        <g id="Group_113" data-name="Group 113" transform="translate(917.175 1001.117)">
          <path id="Path_1103" data-name="Path 1103" d="M635.188,647.762l-16.974-5.517H586.962v-1.563l31.623.038,17.091,5.557Z" transform="translate(-586.962 -640.682)" fill="#f65992"/>
        </g>
        <g id="Group_118" data-name="Group 118" transform="translate(1556.506 542.861)">
          <path id="Path_1107" data-name="Path 1107" d="M1445.316,368.136,1145.144,546.114a248.244,248.244,0,0,0-117.4,167.821l-31.633,168.8h693.609V524.987l-29.7-80.592a148.247,148.247,0,0,0-214.706-76.254" transform="translate(-996.113 -347.413)" fill="#2480fe"/>
        </g>
        <g id="Group_119" data-name="Group 119" transform="translate(1249.412 687.176)">
          <path id="Path_1108" data-name="Path 1108" d="M852.064,557.729,864.1,564.54a84.535,84.535,0,0,1,40.721,92.675l-2.356,10.157,131.471,163.4H852.064L824,694.252l-24.42-131.169,2.747-108.7a14.982,14.982,0,0,1,29.7-2.409Z" transform="translate(-799.583 -439.77)" fill="#ffa452"/>
        </g>
        <g id="Group_120" data-name="Group 120" transform="translate(1818.396 943.873)">
          <path id="Path_1109" data-name="Path 1109" d="M1163.714,738.355l19.4-134.307,36.721,134.307Z" transform="translate(-1163.714 -604.048)" fill="#0064dc"/>
        </g>
        <g id="Group_121" data-name="Group 121" transform="translate(1249.439 777.852)">
          <path id="Path_1110" data-name="Path 1110" d="M800.381,574.709a.781.781,0,0,1-.781-.781V498.581a.781.781,0,1,1,1.562,0v75.338a.781.781,0,0,1-.781.789Z" transform="translate(-799.6 -497.8)" fill="#f46c0f"/>
        </g>
        <g id="Group_122" data-name="Group 122" transform="translate(1292.366 990.217)">
          <path id="Path_1111" data-name="Path 1111" d="M827.072,675.315c12.644-27.331,43.49-35.953,57.692-39.418s62.816-4.816,74.016,11.583l59.686,74.188H836.6Z" transform="translate(-827.072 -633.707)" fill="#fff"/>
        </g>
        <g id="Group_123" data-name="Group 123" transform="translate(1300.276 1034.2)">
          <path id="Path_1112" data-name="Path 1112" d="M832.134,697.968c18.765-20.7,45.265-36.114,75.4-36.114s75.463,2.511,87.226,18.057l20.856,25.923H833.751Z" transform="translate(-832.134 -661.854)" fill="#2480fe"/>
        </g>
        <g id="Group_124" data-name="Group 124" transform="translate(1608.853 292.996)">
          <path id="Path_1113" data-name="Path 1113" d="M1104.752,235.97h0a36.353,36.353,0,0,1-45.9-14l-21.314-34.463a78.242,78.242,0,0,0-7.922,35.056c.611,30.384,20.537,56.54,30.545,85.236a153.953,153.953,0,0,1,6.463,25.953l44.69-10.832Z" transform="translate(-1029.614 -187.508)" fill="#ffa452"/>
        </g>
        <g id="Group_125" data-name="Group 125" transform="translate(1787.219 559.111)">
          <path id="Path_1114" data-name="Path 1114" d="M1315.447,357.813,1143.762,459.6l11.779,25.24,129.879-77,45.407-26.922a82.391,82.391,0,0,1-15.379-23.106" transform="translate(-1143.762 -357.813)" fill="#fff"/>
        </g>
        <g id="Group_126" data-name="Group 126" transform="translate(1690.913 426.03)">
          <path id="Path_1115" data-name="Path 1115" d="M1083.863,302.732l19.765-.388,4.452-20.417a37.108,37.108,0,0,1,3.364-9.283l-29.315,7.107Z" transform="translate(-1082.129 -272.645)" fill="#042647"/>
        </g>
        <g id="Group_127" data-name="Group 127" transform="translate(1616.776 149.335)">
          <path id="Path_1116" data-name="Path 1116" d="M1101.9,287.693h0l6.563,86.945,33.352-8.085a37.225,37.225,0,0,1,44.81-10.861l2.344-.57a43.422,43.422,0,0,1,36.888,76.474l-9.89,7.691-2.877-3.7,9.888-7.689a38.726,38.726,0,0,0-30.361-68.735,37.177,37.177,0,0,1,14.4,39.862l-9.3,34.956a86.828,86.828,0,0,1-19.532,35.939,6.241,6.241,0,0,0,1.945,9.821l52.385,24.939a130.093,130.093,0,0,0,111.556.13l27.631-13.076a73.679,73.679,0,0,1-2.178-9.91c-2.253-15.795-1.114-31.853.03-47.767q4.978-69.28,9.957-138.562c2.37-33.011,4.719-66.477-1.555-98.974s-22.292-64.466-49.74-82.957c-24.064-16.212-54.726-20.532-83.479-16.671s-58.647,16.032-83.262,31.389a889.04,889.04,0,0,0-86.618,62.417c-16.232,13.282-31.366,29.8-40.177,48.526L1056,273.686a36.354,36.354,0,0,0,45.9,14" transform="translate(-1034.684 -95.569)" fill="#042647"/>
        </g>
        <g id="Group_128" data-name="Group 128" transform="translate(1602.471 439.235)">
          <path id="Path_1117" data-name="Path 1117" d="M1025.529,291.617l1.1,4.556,43-10.424q-.324-2.331-.7-4.653Z" transform="translate(-1025.529 -281.096)" fill="#fff"/>
        </g>
        <g id="Group_129" data-name="Group 129" transform="translate(1646.578 406.065)">
          <path id="Path_1118" data-name="Path 1118" d="M1360.978,399.308l-27.633,13.076a130.087,130.087,0,0,1-111.554-.13l-52.386-24.939a6.239,6.239,0,0,1-1.945-9.821,86.861,86.861,0,0,0,19.532-35.939l9.3-34.956a37.177,37.177,0,0,0-14.4-39.861,36.718,36.718,0,0,0-5.989-3.469,37.172,37.172,0,0,0-51.851,25.859l-4.45,20.418-19.765.387-1.736-22.981L1053.756,297.7c5.233,37.875-.542,77.721,2.472,116.315,1.063,13.618,3.3,27.345,9.047,39.738s15.355,23.411,27.97,28.639c8.305,3.438,17.453,4.241,26.441,4.483a234.6,234.6,0,0,0,58.962-5.914l15.749,33.752,171.684-101.79a96.782,96.782,0,0,1-5.105-13.607" transform="translate(-1053.756 -259.868)" fill="#ffa452"/>
        </g>
        <g id="Group_130" data-name="Group 130" transform="translate(1645.865 428.403)">
          <path id="Path_1119" data-name="Path 1119" d="M1097.99,274.164,1053.3,285q.38,2.32.7,4.653l44.338-10.747Z" transform="translate(-1053.3 -274.164)" fill="#fff"/>
        </g>
        <g id="Group_131" data-name="Group 131" transform="translate(1690.555 420.318)">
          <path id="Path_1120" data-name="Path 1120" d="M1081.9,277.075l.358,4.738,29.317-7.107a36.86,36.86,0,0,1,3.677-5.716Z" transform="translate(-1081.9 -268.99)" fill="#fff"/>
        </g>
        <g id="Group_132" data-name="Group 132" transform="translate(1768.712 407.665)">
          <path id="Path_1121" data-name="Path 1121" d="M1165.031,271.471a38.439,38.439,0,0,1,17.3,24.564,38.92,38.92,0,0,1-14.063,38.852l-9.888,7.691,2.877,3.7,9.888-7.691a43.421,43.421,0,0,0-36.886-76.474l-2.344.569a36.984,36.984,0,0,1,5.99,3.471,38.379,38.379,0,0,1,27.12,5.313" transform="translate(-1131.918 -260.892)" fill="#fff"/>
        </g>
        <g id="Group_133" data-name="Group 133" transform="translate(1630.738 413.457)">
          <path id="Path_1122" data-name="Path 1122" d="M1076.091,277.475l-24.978,3.978a6.477,6.477,0,1,1-2.031-12.793l24.978-3.98a6.478,6.478,0,1,1,2.031,12.8" transform="translate(-1043.619 -264.599)" fill="#042647"/>
        </g>
        <g id="Group_134" data-name="Group 134" transform="translate(0.831)">
          <rect id="Rectangle_126" data-name="Rectangle 126" width="2248.788" height="1078.18" fill="none"/>
        </g>
      </g>
    </g>
  </g>
</svg>
